<svg xmlns="http://www.w3.org/2000/svg" viewBox="0 0 100 100" width="100px" height="100px">
  <path d="M 50.224609 13.296875 A 1.0001 1.0001 0 0 0 50.179688 13.298828 C 50.16123 13.299617 50.143454 13.299991 50.125 13.300781 A 1.0001 1.0001 0 0 0 50.119141 13.302734 C 31.913969 14.082695 15.105874 15.702779 14.658203 15.746094 A 1.0001 1.0001 0 0 0 14.582031 15.742188 A 1.0001 1.0001 0 0 0 13.638672 17.046875 C 13.638672 17.046875 24.381611 52.495531 28.097656 88.794922 A 1.0001 1.0001 0 0 0 29.337891 89.794922 A 1.0001 1.0001 0 0 0 29.404297 89.775391 C 29.404297 89.775391 57.272701 81.167951 85.035156 80.193359 A 1.0006178 1.0006178 0 0 0 85.207031 80.171875 A 1.0001 1.0001 0 0 0 85.232422 80.166016 A 1.0006178 1.0006178 0 0 0 85.302734 80.146484 A 1.0001 1.0001 0 0 0 85.304688 80.146484 A 1.0006178 1.0006178 0 0 0 85.789062 79.808594 A 1.0001 1.0001 0 0 0 85.804688 79.787109 A 1.0006178 1.0006178 0 0 0 85.935547 79.548828 A 1.0001 1.0001 0 0 0 85.9375 79.542969 A 1.0006178 1.0006178 0 0 0 85.998047 79.255859 A 1.0001 1.0001 0 0 0 85.998047 79.251953 A 1.0006178 1.0006178 0 0 0 86 79.195312 C 86.031519 65.348175 81.384688 45.753602 75.476562 28.601562 A 1.0001 1.0001 0 0 0 74.900391 27.974609 C 67.996048 21.87697 59.147455 17.022439 50.759766 13.439453 A 1.0001 1.0001 0 0 0 50.330078 13.302734 A 1.0001 1.0001 0 0 0 50.324219 13.300781 A 1.0001 1.0001 0 0 0 50.310547 13.300781 A 1.0001 1.0001 0 0 0 50.25 13.296875 A 1.0001 1.0001 0 0 0 50.224609 13.296875 z M 49.705078 15.324219 C 49.769223 15.41721 49.829699 15.513365 49.892578 15.607422 C 54.767023 25.972774 52.49625 30.794441 53.419922 31.814453 C 55.033611 33.598476 61.493021 29.212535 73.789062 29.867188 C 79.420532 46.361686 83.768484 65.033705 83.931641 78.228516 C 81.18488 78.274412 58.525927 78.858701 31.035156 85.6875 C 26.190063 48.513621 17.005675 20.802771 15.933594 17.646484 C 17.709898 17.476858 32.58672 16.072665 49.705078 15.324219 z M 52.878906 16.742188 C 59.195363 19.64076 65.522486 23.13343 70.931641 27.390625 C 66.313751 26.986141 61.44167 27.59287 57.111328 28.523438 C 56.121564 24.541778 54.88369 20.441584 52.878906 16.742188 z M 52.292969 39.617188 A 1.0001 1.0001 0 0 0 52.224609 39.621094 C 52.224609 39.621094 43.025617 40.108818 33.791016 41.820312 A 1.0002108 1.0002108 0 1 0 34.15625 43.787109 C 43.223649 42.106604 52.330078 41.617187 52.330078 41.617188 A 1.0001721 1.0001721 0 0 0 52.292969 39.617188 z M 69.501953 47.601562 A 1.0001 1.0001 0 0 0 69.431641 47.603516 C 58.264238 48.250261 47.143073 49.691715 36.179688 51.912109 A 1.0005036 1.0005036 0 0 0 36.578125 53.873047 C 47.448739 51.671441 58.474278 50.240864 69.546875 49.599609 A 1.0001 1.0001 0 0 0 69.501953 47.601562 z M 67.205078 58.414062 A 1.0001 1.0001 0 0 0 67.136719 58.416016 C 57.551249 58.983114 47.994487 60.061673 38.523438 61.644531 A 1.0001 1.0001 0 1 0 38.853516 63.617188 C 48.254465 62.046045 57.739376 60.976965 67.253906 60.414062 A 1.000298 1.000298 0 0 0 67.205078 58.414062 z M 72.439453 68.837891 A 1.0001 1.0001 0 0 0 72.371094 68.841797 C 61.897374 69.549941 51.457058 70.756825 41.097656 72.458984 A 1.0005252 1.0005252 0 1 0 41.421875 74.433594 C 51.718473 72.741753 62.095579 71.539793 72.505859 70.835938 A 1.0001 1.0001 0 0 0 72.439453 68.837891 z" fill="#FFFFFF" />
</svg>